<svg height="512pt" viewBox="-30 0 512 512.0005" width="512pt" xmlns="http://www.w3.org/2000/svg"><path d="m429.011719 253.109375c24.320312-14.5 24.320312-49.722656 0-64.226563 18.648437-21.308593 7.765625-54.804687-19.847657-61.082031 11.148438-26.027343-9.550781-54.523437-37.75-51.960937 2.558594-28.199219-25.933593-48.902344-51.964843-37.753906-6.277344-27.609376-39.773438-38.492188-61.082031-19.847657-14.503907-24.316406-49.722657-24.316406-64.226563 0-21.308594-18.648437-54.804687-7.761719-61.085937 19.847657-26.027344-11.148438-54.519532 9.554687-51.960938 37.753906-28.199219-2.5625-48.898438 25.933594-37.75 51.960937-27.609375 6.277344-38.496094 39.773438-19.847656 61.082031-24.320313 14.503907-24.320313 49.722657 0 64.226563zm0 0" fill="#3a484a"/><path d="m136.175781 389.101562s-57.960937 43.675782-57.960937 122.898438h296.078125c0-79.222656-57.960938-122.898438-57.960938-122.898438zm0 0" fill="#fd6f71"/><path d="m167.082031 389.101562h-30.90625s-57.960937 43.675782-57.960937 122.898438h30.90625c0-79.222656 57.960937-122.898438 57.960937-122.898438zm0 0" fill="#e34b4c"/><g fill="#e3b098"><path d="m280.300781 398.707031c0 29.847657-24.199219 54.042969-54.046875 54.042969s-54.046875-24.195312-54.046875-54.042969c0-29.847656 24.199219-54.046875 54.046875-54.046875s54.046875 24.199219 54.046875 54.046875zm0 0"/><path d="m0 244.121094c0 23.730468 19.238281 42.96875 42.96875 42.96875s22.363281-19.238282 22.363281-42.96875c0-23.730469 1.214844-42.964844-22.515625-42.964844-23.730468 0-42.816406 19.234375-42.816406 42.964844zm0 0"/><path d="m452.507812 244.121094c0 23.730468-19.238281 42.96875-42.96875 42.96875-23.730468 0-42.96875-19.238282-42.96875-42.96875 0-23.730469 19.390626-42.964844 43.121094-42.964844 23.730469 0 42.816406 19.234375 42.816406 42.964844zm0 0"/></g><path d="m410.546875 219.761719c-.015625-16.09375-3.179687-32.046875-9.183594-46.980469-16.082031-40-60.574219-102.945312-175.109375-54.121094-114.535156-48.824218-159.027344 14.121094-175.113281 54.121094-6 14.933594-9.164063 30.886719-9.179687 46.980469v.191406c0 107.066406 82.511718 193.859375 184.292968 193.859375s184.292969-86.792969 184.292969-193.859375c0-.066406 0-.128906 0-.191406zm0 0" fill="#fbc4ac"/><path d="m72.867188 219.953125c0-.066406 0-.128906 0-.191406.015624-16.09375 3.179687-32.046875 9.179687-46.980469 10.878906-27.054688 34.761719-64.59375 84.511719-70.960938-71.214844-8.125-102.492188 38.820313-115.417969 70.960938-6 14.933594-9.164063 30.886719-9.179687 46.980469v.191406c0 107.066406 82.511718 193.859375 184.292968 193.859375 5.207032 0 10.355469-.238281 15.453125-.683594-94.550781-8.261718-168.839843-91.585937-168.839843-193.175781zm0 0" fill="#e3b098"/><path d="m320.074219 250.582031c-4.265625 0-7.726563-3.457031-7.726563-7.722656v-18.246094c0-4.265625 3.460938-7.726562 7.726563-7.726562 4.269531 0 7.726562 3.460937 7.726562 7.726562v18.246094c0 4.265625-3.457031 7.722656-7.726562 7.722656zm0 0" fill="#3a484a"/><path d="m332.5 277.398438h-24.847656c-4.269532 0-7.726563-3.460938-7.726563-7.726563 0-4.269531 3.457031-7.726563 7.726563-7.726563h24.847656c4.265625 0 7.726562 3.457032 7.726562 7.726563 0 4.265625-3.460937 7.726563-7.726562 7.726563zm0 0" fill="#f98084"/><path d="m132.433594 250.582031c-4.269532 0-7.726563-3.457031-7.726563-7.722656v-18.246094c0-4.265625 3.457031-7.726562 7.726563-7.726562 4.265625 0 7.726562 3.460937 7.726562 7.726562v18.246094c0 4.265625-3.460937 7.722656-7.726562 7.722656zm0 0" fill="#3a484a"/><path d="m144.855469 277.398438h-24.847657c-4.269531 0-7.726562-3.460938-7.726562-7.726563 0-4.269531 3.457031-7.726563 7.726562-7.726563h24.847657c4.269531 0 7.726562 3.457032 7.726562 7.726563 0 4.265625-3.457031 7.726563-7.726562 7.726563zm0 0" fill="#f98084"/><path d="m226.253906 276.367188c-8.769531 0-17.007812-3.667969-22.597656-10.066407-2.808594-3.210937-2.480469-8.09375.730469-10.902343 3.214843-2.808594 8.09375-2.480469 10.902343.734374 2.65625 3.039063 6.652344 4.78125 10.964844 4.78125s8.304688-1.742187 10.964844-4.785156c2.808594-3.210937 7.6875-3.539062 10.902344-.730468 3.210937 2.808593 3.539062 7.6875.730468 10.902343-5.589843 6.398438-13.828124 10.066407-22.597656 10.066407zm0 0" fill="#3a484a"/><path d="m429.660156 385.773438c0 46.898437-38.019531 84.917968-84.917968 84.917968-46.898438 0-84.917969-38.019531-84.917969-84.917968 0-46.902344 38.019531-84.917969 84.917969-84.917969 46.898437 0 84.917968 38.015625 84.917968 84.917969zm0 0" fill="#58b78c"/><path d="m386.878906 378.046875h-34.410156v-34.414063c0-4.265624-3.457031-7.726562-7.726562-7.726562-4.269532 0-7.726563 3.460938-7.726563 7.726562v34.414063h-34.410156c-4.269531 0-7.726563 3.457031-7.726563 7.726563 0 4.265624 3.457032 7.726562 7.726563 7.726562h34.410156v34.410156c0 4.269532 3.457031 7.726563 7.726563 7.726563 4.269531 0 7.726562-3.457031 7.726562-7.726563v-34.410156h34.410156c4.269532 0 7.726563-3.460938 7.726563-7.726562 0-4.269532-3.457031-7.726563-7.726563-7.726563zm0 0" fill="#efedee"/></svg>