<?xml version="1.0" encoding="utf-8"?>
<!-- Svg Vector Icons : http://www.onlinewebfonts.com/icon -->
<!DOCTYPE svg PUBLIC "-//W3C//DTD SVG 1.1//EN" "http://www.w3.org/Graphics/SVG/1.1/DTD/svg11.dtd">
<svg version="1.1" xmlns="http://www.w3.org/2000/svg" xmlns:xlink="http://www.w3.org/1999/xlink" x="0px" y="0px" viewBox="0 0 1000 1000" enable-background="new 0 0 1000 1000" xml:space="preserve">
<metadata> Svg Vector Icons : http://www.onlinewebfonts.com/icon </metadata>
<g><g><g><path d="M179.2,494.4c31.7,1.2,16.5,254.6,16.5,267.5c0,0,54,69,227.9,69h9.4c173.9,0,227.9-69.3,227.9-69.3c0-10.4-10-179.4,3-244.4c-41.1-35.6-68.8-86.3-74.3-143.4c-45-9.8-97-15.9-156.6-15.9h-9.4C111,357.8,10,524.5,10,524.5l159.8,73.9C169.8,598.4,155.7,494.4,179.2,494.4z M565.2,521.9c15.3,0,27.6,12.4,27.6,27.6c0,15.2-12.4,27.6-27.6,27.6c-15.2,0-27.6-12.4-27.6-27.6C537.5,534.3,549.9,521.9,565.2,521.9z M340.1,637.1c31.7-22.3,80.3-18.7,80.3-18.7l13.4-0.2c0,0,47.4-3.4,79.1,18.9c31.7,22.3-77.8,57.1-77.8,57.1l-8.8,2l-8.4-2.2C418.1,694,308.4,659.4,340.1,637.1z M283.2,521.9c15.3,0,27.6,12.4,27.6,27.6c0,15.2-12.4,27.6-27.6,27.6c-15.3,0-27.6-12.4-27.6-27.6C255.5,534.3,267.9,521.9,283.2,521.9z"/><path d="M690.9,537.2c0,28.2-4.2,59.2-4.2,59.2l70.4-31.6C733.3,559.2,711,549.8,690.9,537.2z"/><path d="M806.2,536.8c5,0,10-0.4,14.9-0.7c94.5-7.6,168.9-86.6,168.9-183.1c0-101.5-82.3-183.8-183.8-183.8c-101.5,0-183.8,82.3-183.8,183.8c0,10.1,1,20,2.6,29.7C639.2,470,714.8,536.8,806.2,536.8z M742.2,324h50.7v-50.7c0-9.3,7.6-16.9,16.9-16.9c9.3,0,16.9,7.6,16.9,16.9V324h50.7c9.3,0,16.9,7.6,16.9,16.9c0,9.3-7.6,16.9-16.9,16.9h-50.7v50.7c0,9.3-7.6,16.9-16.9,16.9c-9.3,0-16.9-7.6-16.9-16.9v-50.7h-50.7c-9.3,0-16.9-7.6-16.9-16.9C725.3,331.6,732.8,324,742.2,324z"/></g></g><g></g><g></g><g></g><g></g><g></g><g></g><g></g><g></g><g></g><g></g><g></g><g></g><g></g><g></g><g></g></g>
</svg>